<svg version="1.1" xmlns="http://www.w3.org/2000/svg" xmlns:xlink="http://www.w3.org/1999/xlink" x="0px" y="0px"
	 viewBox="0 0 640 570" style="enable-background:new 0 0 640 570;" xml:space="preserve">
<g id="Fish_Background">
	<rect x="3" style="fill:#FFFFFF;stroke:#000000;stroke-width:5;stroke-miterlimit:10;" width="640" height="570"/>
	<path style="fill:#FFFFFF;stroke:#000000;stroke-width:4;stroke-miterlimit:10;" d="M442.1,621.4c-2-4.7-2.5-10-3.5-15.1
		c-0.8-4.6-1.4-9.3-2-14c-0.4,0.1-0.7,0.1-1.1,0.2c0.5,6.6,0.9,13.2,1.4,19.8c-0.7,0.3-1.4,0.6-2,0.9c-4.3-6.1-10.2-11.6-12.6-18.4
		c-4.3-12-7.7-24.7-9.4-37.4c-3.6-25.7-5.4-51.6-8.7-77.4c-2.9-22.7,1-43.9,12.2-63.8c6.3-11.2,12.9-22.4,18.8-33.8
		c16.6-32.2,12.7-62.4-9.3-90.6c-6.6-8.4-13.7-16.4-20.7-24.6c-14.9-17.4-23.1-37.6-21-60.3c1.5-15.7,6.2-31.2,10.4-46.5
		c4.7-17.1,9.2-34.1,7.6-52.1c-1.3-14.7-6.7-27.9-12.9-41c-3-6.2-5.4-12.7-8.1-19.1c8.4,5.2,15.4,11.1,22.7,16.7
		c24.8,19.1,36,44.7,34.3,75.5c-1,18.7-3.7,37.3-6,55.9c-3.8,32.4,0.5,62.7,20.9,89.4c6.8,8.8,13.6,17.7,19.8,27
		c12.6,19,19,40,15,62.8c-2.4,13.9-6,27.8-11.2,40.9c-18.2,45.8-28.8,93-29.2,142.2c-0.2,25.1,1.5,50.1,2.3,74.6
		C447.4,629.7,444,625.9,442.1,621.4z M434.6,557c0.2-29.9,0.5-59.9,1.2-89.8c0.4-15.7,7.8-29.4,13.8-43.5
		c7.3-17.1,15.8-33.7,21.5-51.3c8.9-27.5,1.8-51.9-17.7-73.3c-11-12.1-21-25.1-31.5-37.7c-15.2-18.3-18.4-39.9-15.9-62.4
		c2.7-23.4,6.8-46.7,10.2-70c0.7-4.7,0.6-9.6,1.5-14.1c-4.7,23.6-10,47-13.7,70.7c-2.1,13.3-2.7,27-1.9,40.5
		c0.9,16.7,10.6,29.6,21.3,41.8c10.8,12.3,21.4,24.8,31.2,38c19.1,25.6,18.5,52.7,4.1,80.1c-7.8,14.9-15.9,29.6-23.9,44.4
		c-9.6,17.6-11,36.6-9.3,56.1c2.4,27.8,4.9,55.7,7.3,83.5c0.4,4.5,1.1,9.1,1.6,13.6c0.5,0,1,0.1,1.5,0.1
		C435.6,574.8,434.6,565.9,434.6,557z"/>
	<path style="fill:#FFFFFF;stroke:#000000;stroke-width:4;stroke-miterlimit:10;" d="M87.3,624c0.8-24.4,2.5-49.5,2.3-74.6
		c-0.4-49.2-11-96.5-29.2-142.2c-5.2-13.1-8.8-27-11.2-40.9c-4-22.8,2.4-43.8,15-62.8c6.2-9.3,13-18.1,19.8-27
		c20.5-26.7,24.8-57.1,20.9-89.4c-2.2-18.6-4.9-37.2-6-55.9c-1.7-30.9,9.4-56.4,34.3-75.5c7.3-5.6,14.3-11.5,22.7-16.7
		c-2.7,6.4-5.1,12.9-8.1,19.1c-6.2,13.1-11.6,26.3-12.9,41c-1.7,18.1,2.9,35,7.6,52.1c4.2,15.3,8.9,30.8,10.4,46.5
		c2.2,22.7-6.1,42.9-21,60.3c-7,8.1-14.1,16.1-20.7,24.6c-22.1,28.2-25.9,58.5-9.3,90.6c5.9,11.5,12.4,22.6,18.8,33.8
		c11.2,19.9,15.1,41.1,12.2,63.8c-3.3,25.7-5.1,51.7-8.7,77.4c-1.8,12.7-5.1,25.3-9.4,37.4c-2.4,6.8-8.3,12.3-12.6,18.4
		c-0.7-0.3-1.4-0.6-2-0.9c0.5-6.6,0.9-13.2,1.4-19.8c-0.4-0.1-0.7-0.1-1.1-0.2c-0.7,4.7-1.2,9.4-2,14c-0.9,5.1-1.5,10.4-3.5,15.1
		C93,616.9,89.5,620.7,87.3,624z M100.8,574.6c0.5,0,1-0.1,1.5-0.1c0.6-4.5,1.2-9,1.6-13.6c2.5-27.8,4.9-55.7,7.3-83.5
		c1.7-19.5,0.3-38.5-9.3-56.1c-8-14.8-16.1-29.5-23.9-44.4c-14.4-27.5-15-54.5,4.1-80.1c9.8-13.1,20.4-25.7,31.2-38
		c10.8-12.2,20.5-25.1,21.3-41.8c0.7-13.4,0.2-27.2-1.9-40.5c-3.7-23.7-9.1-47.1-13.7-70.7c0.9,4.6,0.9,9.4,1.5,14.1
		c3.3,23.3,7.5,46.6,10.2,70c2.6,22.5-0.7,44.1-15.9,62.4C104.5,265,94.5,278,83.5,290.1c-19.5,21.3-26.6,45.8-17.7,73.3
		c5.7,17.6,14.3,34.2,21.5,51.3c6,14,13.4,27.8,13.8,43.5c0.7,29.9,1,59.9,1.2,89.8C102.3,556.9,101.3,565.8,100.8,574.6z"/>
</g>
<g id="Fish">
	<path style="fill:#FFFFFF;stroke:#000000;stroke-width:5;stroke-miterlimit:10;" d="M189.2,423c0,0,89.6,103,275.8,45
		c0,0-116-32-108-54s-189-9-189-9L189.2,423z"/>
	<path style="fill:#FFFFFF;stroke:#000000;stroke-width:5;stroke-miterlimit:10;" d="M187.2,163.9c0,0,89.6-103,275.8-45
		c0,0-116,32-108,54s-189,9-189,9L187.2,163.9z"/>
	<path style="fill:#FFFFFF;stroke:#000000;stroke-width:5;stroke-miterlimit:10;" d="M187.2,163.9c0,0,89.6-103,275.8-45
		c0,0-116,32-108,54s-189,9-189,9L187.2,163.9z"/>
	<path style="fill:#FFFFFF;stroke:#000000;stroke-width:5;stroke-miterlimit:10;" d="M492,304.5c0,66-96.9,122.4-216.4,119.5
		c-166.6-4-174-84.1-212.5-77c-48.8,9-28.7-24.2-6.1-27c2.4-0.3-28.9-7-29.9-9c-6.6-13,17.4-14.9,19.9-18
		c74.7-92.5,126.6-135,239.1-135C405.6,158,492,238.5,492,304.5z"/>
	<g>
		<path style="fill:#FFFFFF;stroke:#000000;stroke-width:5;stroke-miterlimit:10;" d="M621,158c-24.9,5-70.7,17.5-116.8,50.9
			c-14.1,10.2-26.2,20.9-36.5,31.5c15.7,20.8,24.3,43.2,24.3,64.1c0,23-11.8,44.9-32.2,63.4c12.2,16.7,24.7,33,32.7,41.3
			c13.3,13.8,46.3,42.5,128.5,49.2c-14-19.5-49.6-74.7-48.8-152.7C572.9,230.8,606.9,177.7,621,158z"/>
	</g>
	<path style="fill:#FFFFFF;stroke:#000000;stroke-width:5;stroke-miterlimit:10;" d="M271,418.3c18.4-99.6-0.5-239-24.7-259.2
		c-2.2,0.2-4.3,0.5-6.5,0.8l-1.1,0.6c-2.9,0-5.2,2.7-4.7,5.6c3.7,20.7,16.8,89.4,9.9,99.3c-8,11.5-27-99.1-27-99.1s-23,1.5-27,8.9
		c0,0,48,124.5-1,234c0,0,14,5.2,22.1,7.7c-1.5-0.3-3.1-0.6-4.6-0.9c3.3,0.7,6.6,1.3,10.1,1.9c5.2-5.5,18.3-78.6,17.4-98.7
		c0,0,5-23,10-18s0,117,0,117s5,2.4,10.8,4.1c-3.5-0.2-6.9-0.5-10.2-0.8c8.4,0.8,17.3,1.3,26.8,1.6c-1.3,0-2.7-0.1-4-0.1
		C269.2,422,270.6,420.6,271,418.3z"/>
	<path style="fill:#FFFFFF;stroke:#000000;stroke-width:5;stroke-miterlimit:10;" d="M439.3,383.6
		C439.3,383.6,439.3,383.6,439.3,383.6C433.8,357.2,418,275.5,423,248c2.9-15.8,9.2-28.9,15-38.2c-7.1-5.8-19.6-14.2-17.9-13.1
		L414,221c0,0-5.3,25.3-9,0c-1.8-12.7-4.1-26.2-5.9-36.5c1.8,0.9-13.6-6.7-24-10.6L369,176c0,0,22,49.7,18,72
		c-3.3,18.7-3,159.1-0.3,160.3S439.3,383.6,439.3,383.6z"/>
	<path style="fill:#FFFFFF;stroke:#000000;stroke-width:5;stroke-miterlimit:10;" d="M354,417c0.1-40.8-3.1-181.4-12-194
		c0,0-8.5-46.9-15.3-59.8c-9.6-1.5-19.4-2.5-29.5-2.9c-0.1,0-0.2,0-0.2,0s4.3,54.4,0,62.8c-4.7,9.1-4.2,200.8-0.1,202.9
		S354,417,354,417z"/>
	<ellipse style="fill:#FFFFFF;stroke:#000000;stroke-width:5;stroke-miterlimit:10;" cx="146" cy="264.5" rx="33" ry="32.5"/>
	<ellipse style="fill:#FFFFFF;stroke:#000000;stroke-width:5;stroke-miterlimit:10;" cx="146" cy="264.5" rx="33" ry="32.5"/>
	<ellipse style="stroke:#000000;stroke-width:5;stroke-miterlimit:10;" cx="138.9" cy="262.6" rx="23.9" ry="23.6"/>
	<path style="fill:#FFFFFF;stroke:#000000;stroke-width:5;stroke-miterlimit:10;" d="M621,158c-13,2.6-31.6,7.3-53,15.8
		c-7.2,11.3-40,40.8-43,63.2c-1.2,8.9,29.4,18,27,27c-5.1,18.9-44.8,21.4-45,45c-0.2,15.7,42.7,31.3,45,45c2.2,12.9-36.9,16-36,27
		c2,25.7,42.7,55,51.4,68.7c15,3.9,32.7,7.1,53.6,8.8c-14-19.5-49.6-74.7-48.8-152.7C572.9,230.8,606.9,177.7,621,158z"/>
</g>
<g id="Layer_9">
	<path style="fill:#FFFFFF;stroke:#000000;stroke-width:4;stroke-miterlimit:10;" d="M574.5,596.4c-2.2-7.6-4.2-14.8-6.4-22.3
		c-5.4,11.3-10.3,21.8-15.3,32.3c-0.8-0.3-1.7-0.6-2.5-1c2.2-7.1,3.3-14.9,6.8-21.3c8.8-15.8,11-31.8,3.4-48.3
		c-5-10.8-5.6-22.2-6.4-33.5c-0.3-4.8,2.7-10.2,5.1-14.8c2.7-5.3,6.6-10,9.8-15c7.2-11.2,8.5-23,4.5-35.8c-2.2-7-3.9-14.4-4.4-21.7
		c-0.3-4.1,1.5-8.9,3.8-12.6c6.1-9.9,5.8-19.8,1.9-30.1c-0.8-2-1.5-4.1-2.6-6c-7.4-13.3-6.8-26.9-1.1-40.4c3.5-8.3,7.7-16.2,12-24.1
		c6.1-11.1,10.4-22.6,12.2-35.2c4.7,21.2,13,41,22.2,60.5c8.1,17.1,10.6,35,7.1,53.5c-1.1,5.6-3.4,11.1-5.8,16.4
		c-2.3,5.2-5.5,9.9-7.9,15c-6.3,13.1-6.4,26.2,0.5,39.3c3,5.7,6,11.6,7.6,17.8c2.9,10.7,0,20.8-6.2,29.8c-3.3,4.8-6.9,9.4-10.5,14
		c-11.3,14.3-14.3,30-8.8,47.4c0.9,3,1.8,6.1,2.3,9.2c3.2,20.5-3.7,34.7-23.6,45.5c1.6-4.1,2.9-8.2,4.8-12.1c1.2-2.5,3.2-4.7,4.8-7
		c8.1-12.1,9.1-24.7,2.2-37.8c-5.4-10.2-8.3-21-6.7-32.7c1.3-9.5,5.3-17.9,10.8-25.5c11-15.4,13.5-32,7.8-49.8
		c-4.9-15.3-2.3-29.5,4.6-43.5c3.4-6.7,6.5-13.5,9.2-20.5c5.5-14.2,5.4-28.5,0.2-43c-4.2-11.5-7.4-23.4-10.9-34.4
		c2.1,10,3.7,20.9,6.9,31.4c5.6,18.7,2.2,36.2-4.8,53.6c-3.2,8-6.5,16.1-9.2,24.3c-3.2,9.7-2.9,19.7,0.2,29.5
		c5.2,16.2,3.1,31.3-6.6,45.2c-9.3,13.4-15.2,28-13.1,44.5c0.9,6.8,3.1,13.8,6.2,19.9C585.9,571.1,583.4,583.7,574.5,596.4z"/>
	<path style="fill:#FFFFFF;stroke:#000000;stroke-width:4;stroke-miterlimit:10;" d="M252.3,647.6c-2.1-7.7-4.1-14.9-6.1-22.4
		c-5.5,11.3-10.6,21.7-15.7,32.1c-0.8-0.3-1.7-0.7-2.5-1c2.3-7.1,3.5-14.9,7.1-21.2c9-15.7,11.4-31.7,4-48.2
		c-4.9-10.8-5.4-22.2-6-33.5c-0.3-4.8,2.8-10.2,5.2-14.8c2.8-5.3,6.7-9.9,10-14.9c7.3-11.1,8.8-22.9,4.9-35.8
		c-2.1-7.1-3.8-14.5-4.2-21.8c-0.2-4.1,1.6-8.9,3.9-12.5c6.2-9.8,6.1-19.8,2.3-30.1c-0.7-2-1.5-4.1-2.5-6c-7.3-13.4-6.5-27-0.6-40.4
		c3.6-8.2,7.9-16.2,12.3-24c6.2-11,10.6-22.5,12.6-35.1c4.5,21.3,12.5,41.2,21.5,60.8c7.9,17.2,10.2,35.1,6.5,53.6
		c-1.1,5.6-3.6,11-6,16.3c-2.3,5.1-5.6,9.9-8.1,14.9c-6.4,13.1-6.7,26.1,0.1,39.3c3,5.7,5.8,11.7,7.4,17.9
		c2.8,10.8-0.2,20.8-6.5,29.8c-3.4,4.8-7,9.3-10.6,13.9c-11.5,14.1-14.6,29.9-9.4,47.3c0.9,3,1.7,6.1,2.2,9.2
		c3,20.6-4.1,34.6-24.1,45.2c1.6-4,3-8.2,5-12.1c1.2-2.5,3.3-4.6,4.9-6.9c8.3-12.1,9.3-24.6,2.6-37.7c-5.3-10.3-8.1-21.1-6.3-32.8
		c1.4-9.4,5.5-17.8,11.1-25.4c11.2-15.3,13.9-31.8,8.3-49.7c-4.8-15.3-2-29.5,5.1-43.4c3.4-6.7,6.6-13.5,9.4-20.4
		c5.7-14.2,5.7-28.4,0.6-43c-4-11.6-7.2-23.5-10.5-34.5c2,10,3.5,21,6.5,31.5c5.4,18.7,1.8,36.2-5.4,53.5c-3.3,8-6.7,16-9.5,24.2
		c-3.3,9.7-3.1,19.7-0.1,29.5c5,16.2,2.8,31.3-7.1,45.1c-9.5,13.3-15.5,27.8-13.6,44.3c0.8,6.8,2.9,13.8,5.9,20
		C264,622.5,261.3,635,252.3,647.6z"/>
	<circle style="fill:#FFFFFF;stroke:#000000;stroke-width:4;stroke-miterlimit:10;" cx="49.6" cy="209.4" r="41.6"/>
	<circle style="fill:#FFFFFF;stroke:#000000;stroke-width:4;stroke-miterlimit:10;" cx="268" cy="89" r="36"/>
	<circle style="fill:#FFFFFF;stroke:#000000;stroke-width:4;stroke-miterlimit:10;" cx="486.4" cy="172.6" r="18.4"/>
	<circle style="fill:#FFFFFF;stroke:#000000;stroke-width:4;stroke-miterlimit:10;" cx="172" cy="485" r="27"/>
	<circle style="fill:#FFFFFF;stroke:#000000;stroke-width:4;stroke-miterlimit:10;" cx="551.6" cy="80.6" r="27.4"/>
	<path style="fill:#FFFFFF;stroke:#000000;stroke-miterlimit:10;" d="M28.5,183c0,0-14.3,10-9,18c0,0,5.7-8.2,9-9V183z"/>
	<path style="fill:#FFFFFF;stroke:#000000;stroke-miterlimit:10;" d="M164.5,465c0,0-14.3,10-9,18c0,0,5.7-8.2,9-9V465z"/>
	<path style="fill:#FFFFFF;stroke:#000000;stroke-miterlimit:10;" d="M250.5,65c0,0-14.3,10-9,18c0,0,5.7-8.2,9-9V65z"/>
	<path style="fill:#FFFFFF;stroke:#000000;stroke-miterlimit:10;" d="M540.5,62c0,0-11.1,7.8-7,14c0,0,4.4-6.3,7-7V62z"/>
	<path style="fill:#FFFFFF;stroke:#000000;stroke-miterlimit:10;" d="M481.5,159c0,0-11.1,7.8-7,14c0,0,4.4-6.3,7-7V159z"/>
</g>
<g id="Layer_10">
</g>
<g id="Dog">
</g>
<g id="Layer_13">
</g>
<g id="Turtle">
	<g id="Layer_4">
	</g>
	<g id="Layer_6">
	</g>
	<g id="Layer_3">
	</g>
</g>
<g id="Cat">
</g>
<g id="Layer_11">
</g>
<g id="Layer_14">
	<rect x="3" y="3" style="fill:none;stroke:#000000;stroke-width:5;stroke-miterlimit:10;" width="639" height="567"/>
</g>
</svg>